<?xml version="1.0" encoding="UTF-8"?>
<svg width="17px" height="25px" viewBox="0 0 17 25" version="1.1" xmlns="http://www.w3.org/2000/svg" xmlns:xlink="http://www.w3.org/1999/xlink">
    <!-- Generator: Sketch 42 (36781) - http://www.bohemiancoding.com/sketch -->
    <title>location-pin</title>
    <desc>Created with Sketch.</desc>
    <defs></defs>
    <g id="Page-1" stroke="none" stroke-width="1" fill="none" fill-rule="evenodd">
        <g id="Full-Color" transform="translate(-304.000000, -50.000000)">
            <g id="location-pin" transform="translate(304.000000, 50.000000)">
                <path d="M8.5,12.5 C6.291,12.5 4.5,10.709 4.5,8.5 C4.5,6.291 6.291,4.5 8.5,4.5 C10.709,4.5 12.5,6.291 12.5,8.5 C12.5,10.709 10.709,12.5 8.5,12.5 M8.5,0.5 C4.082,0.5 0.5,4.082 0.5,8.5 C0.5,13.5 8.5,24.5 8.5,24.5 C8.5,24.5 16.5,13.5 16.5,8.5 C16.5,4.082 12.918,0.5 8.5,0.5" id="Fill-1" fill="#7F2EFF"></path>
                <path d="M9.33537096,20.4233563 C10.2673777,19.044509 11.1993716,17.587982 12.0686023,16.1208424 C12.6952242,15.0631924 13.2658876,14.0384495 13.7677542,13.0605596 C14.9452951,10.7661142 15.698398,8.81981228 15.9258951,7.35144722 C16.014285,6.78094041 16.8389567,6.78943433 16.9155769,7.3616407 C16.9711353,7.77655601 17,8.14157902 17,8.5 C17,10.2111952 16.1582606,12.5961237 14.6586301,15.5172788 C14.14689,16.5141059 13.5665242,17.5560126 12.9301458,18.6299012 C12.049645,20.1157462 11.1069267,21.5887436 10.1642213,22.983162 C9.83424423,23.4712531 9.52774479,23.9147931 9.25251872,24.3055158 C9.08696194,24.5405474 8.96831127,24.7061639 8.90436804,24.7940858 C8.70469371,25.0686381 8.29530629,25.0686381 8.09563196,24.7940858 C8.03168873,24.7061639 7.91303806,24.5405474 7.74748128,24.3055158 C7.47225521,23.9147931 7.16575577,23.4712531 6.83577868,22.983162 C5.8930733,21.5887436 4.950355,20.1157462 4.06985423,18.6299012 C3.43347579,17.5560126 2.85310999,16.5141059 2.34136989,15.5172788 C0.841739442,12.5961237 0,10.2111952 0,8.5 C0,8.14157902 0.0288646606,7.77655601 0.0844231203,7.3616407 C0.161043347,6.78943433 0.985715029,6.78094041 1.07410492,7.35144722 C1.30160199,8.81981228 2.05470491,10.7661142 3.23224583,13.0605596 C3.73411239,14.0384495 4.30477575,15.0631924 4.93139768,16.1208424 C5.80062844,17.587982 6.73262231,19.044509 7.66462904,20.4233563 C7.96495235,20.8676664 8.24544587,21.2744087 8.5,21.6370782 C8.75455413,21.2744087 9.03504765,20.8676664 9.33537096,20.4233563 Z" id="Stroke-5" fill="#000000" fill-rule="nonzero" opacity="0.239999995"></path>
                <path d="M8.5,12.5 C6.291,12.5 4.5,10.709 4.5,8.5 C4.5,6.291 6.291,4.5 8.5,4.5 C10.709,4.5 12.5,6.291 12.5,8.5 C12.5,10.709 10.709,12.5 8.5,12.5 Z M8.5,0.5 C4.082,0.5 0.5,4.082 0.5,8.5 C0.5,13.5 8.5,24.5 8.5,24.5 C8.5,24.5 16.5,13.5 16.5,8.5 C16.5,4.082 12.918,0.5 8.5,0.5 Z" id="Stroke-8" stroke="#000000" stroke-linecap="round" stroke-linejoin="round"></path>
            </g>
        </g>
    </g>
</svg>