<?xml version="1.0" encoding="UTF-8"?>
<svg width="15px" height="25px" viewBox="0 0 15 25" version="1.1" xmlns="http://www.w3.org/2000/svg" xmlns:xlink="http://www.w3.org/1999/xlink">
    <!-- Generator: Sketch 42 (36781) - http://www.bohemiancoding.com/sketch -->
    <title>iphone</title>
    <desc>Created with Sketch.</desc>
    <defs></defs>
    <g id="Page-1" stroke="none" stroke-width="1" fill="none" fill-rule="evenodd">
        <g id="Subtle-Color" transform="translate(-455.000000, -500.000000)">
            <g id="iphone" transform="translate(455.000000, 500.000000)">
                <path d="M12.5,24.5 L2.5,24.5 C1.396,24.5 0.5,23.604 0.5,22.5 L0.5,2.5 C0.5,1.396 1.396,0.5 2.5,0.5 L12.5,0.5 C13.604,0.5 14.5,1.396 14.5,2.5 L14.5,22.5 C14.5,23.604 13.604,24.5 12.5,24.5 Z" id="Stroke-551" stroke="#FF7300" stroke-linecap="round" stroke-linejoin="round"></path>
                <path d="M6.5,2.5 L8.5,2.5" id="Stroke-552" stroke="#FF7300" stroke-linecap="round" stroke-linejoin="round"></path>
                <path d="M8,22.5 C8,22.776 7.776,23 7.5,23 C7.224,23 7,22.776 7,22.5 C7,22.224 7.224,22 7.5,22 C7.776,22 8,22.224 8,22.5 Z" id="Stroke-553" stroke="#FF7300" stroke-linecap="round" stroke-linejoin="round"></path>
                <path d="M0.5,4.5 L14.5,4.5" id="Stroke-554" stroke="#FF7300" stroke-linecap="round" stroke-linejoin="round"></path>
                <path d="M0.5,20.5 L14.5,20.5" id="Stroke-555" stroke="#FF7300" stroke-linecap="round" stroke-linejoin="round"></path>
                <path d="M12.5,0.5 L2.5,0.5 C1.396,0.5 0.5,1.396 0.5,2.5 L0.5,22.5 C0.5,23.604 1.396,24.5 2.5,24.5 L12.5,24.5 C13.604,24.5 14.5,23.604 14.5,22.5 L14.5,2.5 C14.5,1.396 13.604,0.5 12.5,0.5" id="Fill-556" fill="#FF7300" opacity="0.119999997"></path>
            </g>
        </g>
    </g>
</svg>